<!--<svg xmlns="http://www.w3.org/2000/svg" viewBox="0 0 128 128"><path fill-rule="evenodd" d="M81 36 64 0 47 36l-1 2-9-10a6 6 0 0 0-9 9l10 10h-2L0 64l36 17h2L28 91a6 6 0 1 0 9 9l9-10 1 2 17 36 17-36v-2l9 10a6 6 0 1 0 9-9l-9-9 2-1 36-17-36-17-2-1 9-9a6 6 0 1 0-9-9l-9 10v-2Zm-17 2-2 5c-4 8-11 15-19 19l-5 2 5 2c8 4 15 11 19 19l2 5 2-5c4-8 11-15 19-19l5-2-5-2c-8-4-15-11-19-19l-2-5Z" clip-rule="evenodd"/><path d="M118 19a6 6 0 0 0-9-9l-3 3a6 6 0 1 0 9 9l3-3Zm-96 4c-2 2-6 2-9 0l-3-3a6 6 0 1 1 9-9l3 3c3 2 3 6 0 9Zm0 82c-2-2-6-2-9 0l-3 3a6 6 0 1 0 9 9l3-3c3-2 3-6 0-9Zm96 4a6 6 0 0 1-9 9l-3-3a6 6 0 1 1 9-9l3 3Z"/><style>path{fill:#000}@media (prefers-color-scheme:dark){path{fill:#fff}}</style></svg>-->
<svg version="1.1" xmlns="http://www.w3.org/2000/svg" width="501" height="500">
    <path d="M0 0 C17.82 0 35.64 0 54 0 C54.09048795 23.19275815 54.16409096 46.38537214 54.20724869 69.57826233 C54.22782514 80.34846339 54.25585119 91.11854653 54.30175781 101.88867188 C54.34177669 111.28199949 54.3674685 120.67524165 54.37635398 130.06865215 C54.38154335 135.03689346 54.39363647 140.00489042 54.42292023 144.97305298 C54.45032782 149.66146426 54.45839449 154.34953348 54.45243073 159.03801727 C54.45351974 160.74707659 54.46132126 162.45614888 54.4768219 164.16513824 C54.65008739 184.27629348 50.35551908 201.96184093 36.11669922 216.96044922 C29.02859942 224.15025732 21.34491749 229.09590114 12 233 C11.01 233 10.02 233 9 233 C9.03480469 233.58265625 9.06960938 234.1653125 9.10546875 234.765625 C9.60857864 250.00266737 3.8040517 264.35726677 -6.5 275.5 C-8.30326556 277.36800126 -10.14269098 279.18445955 -12 281 C-12.56074219 281.59296875 -13.12148438 282.1859375 -13.69921875 282.796875 C-25.89438134 294.70396288 -44.1059197 298.5291304 -60.47973633 298.42016602 C-79.42442278 297.85880212 -95.70123462 289.45886934 -108.9296875 276.04296875 C-110 274 -110 274 -109.546875 271.7578125 C-107.39048977 267.91334793 -104.86755143 264.41716106 -102.25 260.875 C-101.67435303 260.08730225 -101.09870605 259.29960449 -100.50561523 258.48803711 C-98.67603103 255.98784439 -96.83864655 253.49353363 -95 251 C-93.83965848 249.42070902 -92.67949902 247.84128426 -91.51953125 246.26171875 C-88.619249 242.3166627 -85.7112373 238.37736802 -82.80126953 234.43945312 C-80.93682835 231.91444686 -79.0753988 229.38724594 -77.21484375 226.859375 C-76.59279053 226.01431396 -75.9707373 225.16925293 -75.32983398 224.29858398 C-74.15077558 222.69666914 -72.97188861 221.09462809 -71.79321289 219.49243164 C-68.22132532 214.64201609 -64.62243631 209.81278194 -61 205 C-57.48245994 206.56098367 -55.78093875 208.43281379 -53.38378906 211.44433594 C-51.08938986 214.02371345 -48.28030963 215.81535893 -45.375 217.625 C-44.76470947 218.01107422 -44.15441895 218.39714844 -43.52563477 218.79492188 C-29.11748895 227.64298431 -17.60659864 227 0 227 C0 152.09 0 77.18 0 0 Z M9 9 C9 79.95 9 150.9 9 224 C24.48963024 217.36158704 35.57105419 207.2330554 42.0625 191.41015625 C44.2104086 185.20393959 45.12508877 179.49599804 45.12025452 172.90690613 C45.12110894 172.20434655 45.12196337 171.50178697 45.12284368 170.77793771 C45.12448717 168.43030145 45.11899567 166.08273707 45.11352539 163.73510742 C45.11324325 162.04966229 45.11340178 160.36421703 45.1139679 158.67877197 C45.11425482 154.10688904 45.10837505 149.53503234 45.10139394 144.96315551 C45.09514292 140.1838785 45.09455521 135.4046009 45.09336853 130.62532043 C45.09026038 121.5767015 45.08205393 112.52809465 45.07201904 103.47948104 C45.0608419 93.17726529 45.05534341 82.87504896 45.05032361 72.57282865 C45.0398709 51.38187753 45.02153181 30.19094296 45 9 C33.12 9 21.24 9 9 9 Z M-60 219 C-60.92517663 220.13444049 -61.80556235 221.30541937 -62.66796875 222.48828125 C-63.22444092 223.24786133 -63.78091309 224.00744141 -64.35424805 224.79003906 C-64.95922119 225.62245117 -65.56419434 226.45486328 -66.1875 227.3125 C-67.46865634 229.0638706 -68.74990902 230.81517073 -70.03125 232.56640625 C-70.68996094 233.46891113 -71.34867188 234.37141602 -72.02734375 235.30126953 C-75.06759417 239.46054281 -78.12818751 243.60474021 -81.1875 247.75 C-87.13856439 255.82340188 -93.07351929 263.90853961 -99 272 C-89.00854587 282.43909992 -75.75628325 288.97403502 -61.24804688 289.29272461 C-43.68640216 289.42512346 -29.03250958 285.33950257 -16.125 272.6875 C-11.53095913 267.84888429 -7.94377975 262.98252015 -5 257 C-4.60039062 256.18789063 -4.20078125 255.37578125 -3.7890625 254.5390625 C-1.0619569 248.4079102 -0.31767558 242.65960898 0 236 C-0.58265625 236.02094727 -1.1653125 236.04189453 -1.765625 236.06347656 C-23.16262568 236.72792745 -40.36439239 233.94209604 -57.609375 220.06640625 C-58.84018176 218.89857914 -58.84018176 218.89857914 -60 219 Z " fill="#59A835" transform="translate(270,139)"/>
    <path d="M0 0 C3.37818959 1.1260632 3.79874949 1.74218023 5.7421875 4.5703125 C6.25136719 5.3025 6.76054687 6.0346875 7.28515625 6.7890625 C7.80980469 7.55992188 8.33445312 8.33078125 8.875 9.125 C9.91393188 10.62769449 10.95299304 12.1302996 11.9921875 13.6328125 C12.74387207 14.72770996 12.74387207 14.72770996 13.51074219 15.84472656 C15.63768425 18.92286501 17.8161895 21.96200531 20 25 C25.55709887 21.96015651 30.67260654 18.5080522 35.8125 14.8125 C37.31815752 13.73448485 38.8246287 12.65760495 40.33203125 11.58203125 C40.98921143 11.10999268 41.6463916 10.6379541 42.32348633 10.15161133 C44 9 44 9 46 8 C45.38114597 15.30916791 43.87544448 22.15514829 42.05859375 29.25390625 C41.80404419 30.26706909 41.54949463 31.28023193 41.28723145 32.32409668 C40.34379847 36.07186767 39.39005492 39.81703711 38.4375 43.5625 C36.313125 51.956875 34.18875 60.35125 32 69 C11.87 69 -8.26 69 -29 69 C-32.37744802 58.86765593 -32.37744802 58.86765593 -33.45800781 54.63549805 C-33.70125793 53.6880925 -33.94450806 52.74068695 -34.19512939 51.76457214 C-34.44526794 50.77363052 -34.69540649 49.7826889 -34.953125 48.76171875 C-35.21760437 47.71852982 -35.48208374 46.67534088 -35.75457764 45.60054016 C-36.30770673 43.41183091 -36.8588874 41.22262841 -37.40820312 39.03295898 C-38.25245253 35.67775317 -39.11044928 32.32624429 -39.96875 28.97460938 C-40.5060567 26.84135933 -41.04254415 24.70790274 -41.578125 22.57421875 C-41.83636047 21.57315598 -42.09459595 20.5720932 -42.36065674 19.54069519 C-42.59129822 18.60905045 -42.8219397 17.6774057 -43.05957031 16.7175293 C-43.26592102 15.90084274 -43.47227173 15.08415619 -43.68487549 14.24272156 C-44.02155904 11.84656566 -43.74782367 10.28204661 -43 8 C-42.42556152 8.4031543 -41.85112305 8.80630859 -41.25927734 9.22167969 C-38.63168958 11.06517366 -36.00335148 12.90759507 -33.375 14.75 C-32.01955078 15.70132813 -32.01955078 15.70132813 -30.63671875 16.671875 C-26.12425521 19.83389325 -21.60346987 22.97180388 -17 26 C-16.68869141 25.01 -16.68869141 25.01 -16.37109375 24 C-14.489263 19.88248997 -11.82800976 16.56458096 -9.0625 13 C-4.21166788 6.71955966 -4.21166788 6.71955966 0 0 Z M-0.41796875 16.23974609 C-5.29764418 21.1584697 -9.90928547 26.28891583 -12 33 C-11.86848829 40.47999787 -9.5350368 54.4649632 -4 60 C-2.14712498 60.07226502 -0.29166122 60.0838122 1.5625 60.0625 C2.57441406 60.05347656 3.58632813 60.04445312 4.62890625 60.03515625 C5.41136719 60.02355469 6.19382812 60.01195312 7 60 C8.20613503 56.10968907 9.38658951 52.21204317 10.5625 48.3125 C10.90474609 47.20970703 11.24699219 46.10691406 11.59960938 44.97070312 C12.07817383 43.3706543 12.07817383 43.3706543 12.56640625 41.73828125 C12.86490479 40.75899658 13.16340332 39.77971191 13.47094727 38.77075195 C14.20181532 34.94305395 13.74870901 32.37675967 11.89257812 28.96362305 C11.44333984 28.31949463 10.99410156 27.67536621 10.53125 27.01171875 C10.04269531 26.30595703 9.55414063 25.60019531 9.05078125 24.87304688 C8.28314453 23.79120117 8.28314453 23.79120117 7.5 22.6875 C6.98824219 21.94693359 6.47648437 21.20636719 5.94921875 20.44335938 C4.03150514 17.67928084 4.03150514 17.67928084 2 15 C0.81155411 14.89029818 0.81155411 14.89029818 -0.41796875 16.23974609 Z M-30 29 C-27.93004675 45.65917789 -27.93004675 45.65917789 -22 60 C-19.32941149 60.14115161 -16.67567762 60.04247107 -14 60 C-14.59882417 56.65131219 -15.29696639 53.32823428 -16 50 C-16.23332031 48.74832031 -16.46664063 47.49664062 -16.70703125 46.20703125 C-18.52290879 37.34065378 -18.52290879 37.34065378 -24.6875 31.0625 C-27.2059899 29.57300032 -27.2059899 29.57300032 -30 29 Z M31 29 C25.55422167 31.97650778 22.62509084 34.82559302 20.6875 40.80078125 C20.0951801 42.96340701 19.5332181 45.13454878 19 47.3125 C18.70222656 48.42173828 18.40445313 49.53097656 18.09765625 50.67382812 C16.65629397 55.27211361 16.65629397 55.27211361 16 60 C18.97 60 21.94 60 25 60 C26.02577139 56.06996821 27.04069508 52.13731109 28.0456543 48.2019043 C28.38903656 46.86357316 28.73537194 45.5259961 29.0847168 44.18920898 C29.58638049 42.2674731 30.0765522 40.34274881 30.56640625 38.41796875 C30.86490479 37.26063232 31.16340332 36.1032959 31.47094727 34.91088867 C32.25017708 31.94924064 32.25017708 31.94924064 31 29 Z " fill="#36822F" transform="translate(296,60)"/>
</svg>
